# xmcd
#
# Track frame offsets:
#	150
#	12053
#	27375
#	41401
#	60335
#	75925
#	89479
#	102168
#	126728
#	146704
#	164288
#	183934
#	211234
#
# Disc length: 3007 seconds
#
# Revision: 2
# Processed by: cddbd v1.5.2PL0 Copyright (c) Steve Scherf et al.
# Submitted via: audiograbber 1.83.01
#
DISCID=a40bbd0d
DTITLE=Johnny McEvoy - Portrait
DYEAR=1998
DGENRE=
TTITLE0=Riverside
TTITLE1=You're So Far Away
TTITLE2=Old Dungarvan Oak
TTITLE3=Alice Benbolt
TTITLE4=Soldier Of The Hill
TTITLE5=Waltzing's For The Dreamers
TTITLE6=Hard Times
TTITLE7=Boys Of Barr Na Sráide
TTITLE8=Boolavogue
TTITLE9=Love Is Pleasing
TTITLE10=Going To California
TTITLE11=The Town I Left Behind
TTITLE12=The West's Awake
EXTD=
EXTT0=
EXTT1=
EXTT2=
EXTT3=
EXTT4=
EXTT5=
EXTT6=
EXTT7=
EXTT8=
EXTT9=
EXTT10=
EXTT11=
EXTT12=
PLAYORDER=
